<svg xmlns="http://www.w3.org/2000/svg" viewBox="-10 0 120 36">  
 <defs>     

 <clipPath id="a" clipPathUnits="userSpaceOnUse">       
 <path d="M0 0h595.276v841.89H0Z"/>     
 </clipPath>     
 <clipPath id="b" clipPathUnits="userSpaceOnUse">       
 <path d="M44.5918 710.674H550.512v-579.36H44.5918Z"/>     
 </clipPath>     
 <mask id="c" width="1" height="1" x="0" y="0" maskUnits="userSpaceOnUse"/>   
 </defs>   
 <g transform="scale(0.9)" >
 <g clip-path="url(#a)" transform="matrix(1.3333333 0 0 -1.3333333 -68.031732 1054.4888)">     
 <path d="M0 0v-4.235h-3.157l.001-13.839h-5.055l-.002 13.839h-1.937V0h1.937v5.395h5.057L-3.157 0Zm26.037.01h-4.973v-18.084h4.973zm-2.486 8.202c-.786 0-1.454-.276-2.007-.828-.552-.553-.828-1.222-.828-2.007 0-.786.276-1.45.828-1.989.553-.54 1.221-.81 2.007-.81.81 0 1.485.27 2.026.81.539.539.81 1.203.81 1.989 0 .785-.271 1.454-.81 2.007-.541.552-1.216.828-2.026.828m5.07-26.289h5.116v9.042c0 3.094 1.656 4.286 3.456 4.418 1.876.139 3.758-.501 3.758-3.879v-9.581h5.115l.008 11.007c0 1.055-.16 2.03-.479 2.927-.319.896-.786 1.663-1.399 2.302-.614.638-1.363 1.141-2.246 1.509-.884.369-1.903.553-3.057.553-1.203 0-2.283-.27-3.241-.81-.957-.54-1.718-1.13-2.283-1.768L32.897.002 28.61 0Zm-57.212 0h5.116v9.042c0 3.094 1.656 4.286 3.456 4.418 1.877.139 3.758-.501 3.758-3.879v-9.581h5.116l.007 11.007c0 1.055-.159 2.03-.478 2.927-.32.896-.786 1.663-1.399 2.302-.615.638-1.363 1.141-2.247 1.509-.884.369-1.903.553-3.056.553-1.204 0-2.284-.27-3.242-.81-.957-.54-1.718-1.13-2.282-1.768l-.472 2.359L-28.602 0ZM18.492.01v-18.084h-4.268l-.346 1.866c-1.334-1.38-3.095-2.239-5.159-2.239-4.771 0-8.639 4.445-8.639 9.61C.08-3.672 3.948.258 8.719.258c2.167 0 3.999-.824 5.355-2.199L14.592.01ZM9.305-13.865c2.451 0 4.438 2.184 4.438 4.88 0 2.694-1.987 4.879-4.438 4.879-2.451 0-4.438-2.185-4.438-4.879 0-2.696 1.987-4.88 4.438-4.88M-52.129 9.273V5.356l8.755-9.573-8.719-9.841v-4.019l21.224.002v9.24h-4.755V-13.1h-9.117l7.719 9.015-7.903 8.567 8.953-.001V.766h4.756l-.003 8.507z" style="fill:#686868;fill-opacity:1;fill-rule:nonzero;stroke:none" transform="translate(103.1528 781.5936)"/>     
 <g clip-path="url(#b)" mask="url(#c)">       
 <path d="M44.592 710.674h505.92v-579.36H44.592Z" style="mix-blend-mode:screen;fill:#686868;fill-opacity:.649994;fill-rule:nonzero;stroke:none"/>    
  </g>   
  </g> 
  </g>
  </svg>