<?xml version="1.0" encoding="UTF-8"?>
<!-- Generator: Adobe Illustrator 27.6.1, SVG Export Plug-In . SVG Version: 6.00 Build 0)  -->
<svg xmlns="http://www.w3.org/2000/svg" xmlns:xlink="http://www.w3.org/1999/xlink" version="1.1" id="a" x="0px" y="0px" viewBox="0 5 120 32" style="enable-background:new 0 0 130 32;" xml:space="preserve">
<style type="text/css">
	.st0{fill:#434343;}
	.st1{fill:url(#SVGID_1_);}
	.st2{fill:url(#SVGID_00000003063768388258265450000017362796888472125621_);}
	.st3{fill:url(#SVGID_00000025403160026171875380000015736947968564685745_);}
	.st4{fill:url(#SVGID_00000130604928826082677570000001765357670934698912_);}
	.st5{fill:url(#SVGID_00000158002468503011780050000005687667677922000827_);}
	.st6{fill:url(#SVGID_00000009584811384615415120000009902326321896955049_);}
</style>
<g transform="scale(1.4)" >
	<path class="st0" d="M39.4,9.7c-0.1,0-0.1,0.1-0.1,0.1V12h7.9v1.9h-7.9v2.6h8.1v1.9H37.3V9.9c0-1.1,0.9-2.1,2.1-2.1h8v1.9H39.4z    M32,7.8c1.9,0,3.5,1.6,3.5,3.5s-1.6,3.5-3.5,3.5h-5.9v3.7h-1.9V9.9c0-1.1,0.9-2.1,2.1-2.1H32z M26.2,12.8H32   c0.9,0,1.6-0.7,1.6-1.6c0-0.9-0.7-1.6-1.6-1.6h-5.7c-0.1,0-0.1,0.1-0.1,0.1V12.8z M52.6,8.4c-0.3-0.4-0.8-0.6-1.4-0.6h-1.3v10.7   h1.9v-8.1l7.3,8.1h1.4V7.8h-1.9v7.4L52.6,8.4z M65.8,8.4C65.5,8,65,7.8,64.5,7.8h-1.3v10.7h1.9v-8.1l7.3,8.1h1.4V7.8h-1.9v7.4   L65.8,8.4z M24.2,21.3h2.1v0.5h-1.6v0.7h1.4V23h-1.4v0.7h1.6v0.5h-2.2V21.3z M30.1,21.3h0.5v2.9h-0.5l-1.5-2v2h-0.5v-2.9h0.5l1.5,2   L30.1,21.3L30.1,21.3z M56.2,21.3h0.5v2.9h-0.5l-1.5-2v2h-0.5v-2.9h0.5l1.5,2L56.2,21.3L56.2,21.3z M32.2,21.3h2.4v0.5h-0.9v2.4   h-0.6v-2.4h-0.9L32.2,21.3L32.2,21.3z M63.5,21.3h2.1v0.5h-1.6v0.7h1.4V23h-1.4v0.7h1.6v0.5h-2.2V21.3z M69.4,21.3H70v2.9h-0.5   l-1.5-2v2h-0.5v-2.9H68l1.5,2L69.4,21.3L69.4,21.3z M71.5,21.3h2.4v0.5h-0.9v2.4h-0.6v-2.4h-0.9L71.5,21.3L71.5,21.3z M43.8,21.3   h2.4v0.5h-0.9v2.4h-0.6v-2.4h-0.9L43.8,21.3L43.8,21.3z M36.1,21.3h2.1v0.5h-1.6v0.7h1.4V23h-1.4v0.7h1.6v0.5h-2.2V21.3z    M41.8,24.2l-0.5-0.9c0,0-0.1,0-0.1,0h-0.7v0.8H40v-2.9h1.2c0.4,0,0.7,0.1,0.9,0.3c0.2,0.2,0.3,0.4,0.3,0.7c0,0.2,0,0.4-0.1,0.6   c-0.1,0.2-0.2,0.3-0.4,0.4l0.6,1H41.8z M40.6,22.9h0.7c0.2,0,0.4,0,0.5-0.1s0.2-0.2,0.2-0.4s-0.1-0.3-0.2-0.4s-0.3-0.1-0.5-0.1   h-0.7V22.9z M49.7,24.2l-0.3-0.6H48l-0.3,0.6h-0.6l1.3-2.9H49l1.2,2.9H49.7z M48.2,23.2h1l-0.5-1.2L48.2,23.2z M51.8,21.3h0.5v2.9   h-0.5V21.3z M58.5,21.3h0.6l1,1.9l0.9-1.9h0.6v2.9h-0.5v-2.1l-0.9,1.8h-0.4L59,22.2v2.1h-0.5L58.5,21.3L58.5,21.3z"></path>
	
		<radialGradient id="SVGID_1_" cx="-245.4551" cy="396.5057" r="0.4888" gradientTransform="matrix(54.8665 0 0 -54.8665 13467.3916 21781.832)" gradientUnits="userSpaceOnUse">
		<stop offset="0" style="stop-color:#515151"></stop>
		<stop offset="0.333" style="stop-color:#686868"></stop>
		<stop offset="0.666" style="stop-color:#7C7C7C"></stop>
		<stop offset="1" style="stop-color:#A3A3A3"></stop>
	</radialGradient>
	<path class="st1" d="M4.5,4.8c-0.7,0-4.4,0.2-4.4,3.7v7.9H1c0.6,0,1-0.5,1-1V8.1c0-1.4,0.2-2.2,1.1-2.8c3.2-0.5,8,0,8,6.4   c0,2.8-1.8,6.5-9.2,6.1c-0.7,0-1.9,0.5-1.9,1.8V27L1,27.2c0.6,0.1,1-0.2,1-0.8v-6.6c0-1.6,1.3-1.9,2.6-1.9c4.6,0.2,8.4-1.5,8.4-6.4   C13,5.8,7.9,4.5,4.5,4.8z"></path>
	
		<radialGradient id="SVGID_00000091004855556964330310000015175203046400419733_" cx="-242.6203" cy="392.2159" r="0.4888" gradientTransform="matrix(33.7893 0 0 -33.7893 8198.1006 13269.082)" gradientUnits="userSpaceOnUse">
		<stop offset="0" style="stop-color:#515151"></stop>
		<stop offset="0.333" style="stop-color:#686868"></stop>
		<stop offset="0.666" style="stop-color:#7C7C7C"></stop>
		<stop offset="1" style="stop-color:#A3A3A3"></stop>
	</radialGradient>
	<path style="fill:url(#SVGID_00000091004855556964330310000015175203046400419733_);" d="M4.5,4.8C2.5,5.3,2,6.1,2,8.1v7.3   c0,0.6-0.5,1-1,1H0.2V8.5C0.2,4.9,3.8,4.8,4.5,4.8z"></path>
	
		<radialGradient id="SVGID_00000113344730087960205580000002918234945622065546_" cx="-245.4551" cy="396.5057" r="0.4888" gradientTransform="matrix(54.8665 0 0 -54.8665 13467.3916 21781.832)" gradientUnits="userSpaceOnUse">
		<stop offset="0" style="stop-color:#515151"></stop>
		<stop offset="0.333" style="stop-color:#686868"></stop>
		<stop offset="0.666" style="stop-color:#7C7C7C"></stop>
		<stop offset="1" style="stop-color:#A3A3A3"></stop>
	</radialGradient>
	<path style="fill:url(#SVGID_00000113344730087960205580000002918234945622065546_);" d="M7.4,4C6.7,4,3.1,4.2,3.1,7.7v8.7h0.8   c0.6,0,1-0.5,1-1V7.3c0-1.4,0.2-2.2,1.1-2.8c2.3-0.4,8,0.9,8,6.9c0,2.8-1.8,7-9.2,6.7c-0.7,0-1.9,0.5-1.9,1.8v7.8L3.9,28   c0.6,0.1,1-0.2,1-0.8v-7c0-1.6,1.3-1.9,2.6-1.9c4.6,0.2,8.4-1.9,8.4-7C16,4.6,9.5,4,7.4,4z"></path>
	
		<radialGradient id="SVGID_00000006701174448840980150000015723691817038171268_" cx="-242.6203" cy="392.2159" r="0.4888" gradientTransform="matrix(33.7893 0 0 -33.7893 8198.1006 13269.082)" gradientUnits="userSpaceOnUse">
		<stop offset="0" style="stop-color:#515151"></stop>
		<stop offset="0.333" style="stop-color:#686868"></stop>
		<stop offset="0.666" style="stop-color:#7C7C7C"></stop>
		<stop offset="1" style="stop-color:#A3A3A3"></stop>
	</radialGradient>
	<path style="fill:url(#SVGID_00000006701174448840980150000015723691817038171268_);" d="M7.4,4c-2,0.5-2.5,1.4-2.5,3.3v8   c0,0.6-0.5,1-1,1H3.1V7.7C3.1,4.2,6.7,4,7.4,4z"></path>
	
		<radialGradient id="SVGID_00000113337850686578089710000013367270416231140794_" cx="-245.4551" cy="396.5057" r="0.4888" gradientTransform="matrix(54.8665 0 0 -54.8665 13467.3916 21781.832)" gradientUnits="userSpaceOnUse">
		<stop offset="0" style="stop-color:#515151"></stop>
		<stop offset="0.333" style="stop-color:#686868"></stop>
		<stop offset="0.666" style="stop-color:#7C7C7C"></stop>
		<stop offset="1" style="stop-color:#A3A3A3"></stop>
	</radialGradient>
	<path style="fill:url(#SVGID_00000113337850686578089710000013367270416231140794_);" d="M10.3,3.2C9.6,3.2,6,3.4,6,6.9v9.5h0.8   c0.6,0,1-0.5,1-1V6.5c0-1.4,0.2-2.2,1.1-2.8c3.5-0.3,8,2.1,8,7.3c0,2.8-1.8,7.7-9.2,7.4C7.1,18.5,6,19,6,20.3v8.2l0.8,0.2   c0.6,0.1,1-0.2,1-0.8v-7.5c0-1.6,1.3-1.9,2.6-1.9c4.6,0.2,8.4-2.2,8.4-7.7C18.9,6.8,15.9,3.2,10.3,3.2z"></path>
	
		<radialGradient id="SVGID_00000008863955832812794110000004471764854683331994_" cx="-242.6203" cy="392.2159" r="0.4888" gradientTransform="matrix(33.7893 0 0 -33.7893 8198.1006 13269.082)" gradientUnits="userSpaceOnUse">
		<stop offset="0" style="stop-color:#515151"></stop>
		<stop offset="0.333" style="stop-color:#686868"></stop>
		<stop offset="0.666" style="stop-color:#7C7C7C"></stop>
		<stop offset="1" style="stop-color:#A3A3A3"></stop>
	</radialGradient>
	<path style="fill:url(#SVGID_00000008863955832812794110000004471764854683331994_);" d="M10.3,3.2c-2,0.5-2.5,1.4-2.5,3.3v8.8   c0,0.6-0.5,1-1,1H6V6.9C6,3.4,9.6,3.2,10.3,3.2z"></path>
</g>
</svg>
