<svg width="188" height="48" viewBox="188 15 30 110" fill="none" xmlns="http://www.w3.org/2000/svg"><g stroke-width="2"><path stroke="#334155" fill="#334155" vector-effect="non-scaling-stroke" d="M121.69 69.59a45.59 45.12-.2 0 0-45.748-44.96A45.59 45.12-.2 0 0 30.51 69.91a45.59 45.12-.2 0 0 45.747 44.96 45.59 45.12-.2 0 0 45.433-45.28M202.89 57.76q-3.17 20.99-6.7 41.91c-.25 1.48-.85 2.89-1.42 4.21a.29.29 0 0 0 .27.41h3.44a.68.66-77.6 0 0 .61-.4q1.21-2.71 1.59-5.15 3.23-20.47 6.49-40.96.08-.5.59-.5l8.01-.01q.34 0 .39-.34l.43-3.19q.06-.41-.35-.41l-7.72-.01q-.58 0-.52-.58c.68-6.89 1.95-16.66 11.87-13.27q.19.07.24-.13l.84-3.49q.09-.35-.27-.43c-13.31-2.73-15.85 7.47-16.89 17.41q-.06.5-.56.5h-12.96q-.5 0-.45-.5c.58-5.89 2.23-17.65 11.73-13.28a.26.25 18.8 0 0 .36-.17l.87-3.43a.31.3-75.3 0 0-.21-.37c-12.61-3.7-16.16 7.52-16.9 17.14q-.05.6-.65.6l-4.27.01a.61.61 0 0 0-.6.52l-.44 3.13q-.04.3.27.3l4.49-.01a.33.33 0 0 1 .32.39q-3.31 20.68-6.6 41.34-.33 2.03-1.58 5-.12.29.19.29l3.64-.01q.31 0 .44-.29 1.31-2.91 1.83-6.24 3.13-20 6.3-40.03.08-.45.53-.45h12.93q.5 0 .42.49M239.77 39.26c-2.33 15.19-4.83 30.36-7.17 45.56-.19 1.2-.02 2.52-.1 3.66a.94.94 0 0 0 .94 1.01h2.78q.9 0 .69-.88-.43-1.8-.18-3.37 3.54-22.24 7.07-44.48.24-1.54.06-4.17-.06-.83-.9-.84h-2.73q-.89 0-.66.86.39 1.42.2 2.65"/><path stroke="#334155" vector-effect="non-scaling-stroke" d="M222.728 43.38a3.73 3.2 130.9 0 0 4.86-.725 3.73 3.2 130.9 0 0 .024-4.914 3.73 3.2 130.9 0 0-4.86.724 3.73 3.2 130.9 0 0-.024 4.914M255.429 43.346a3.73 3.2 131.9 0 0 4.873-.639 3.73 3.2 131.9 0 0 .109-4.913 3.73 3.2 131.9 0 0-4.873.639 3.73 3.2 131.9 0 0-.109 4.913M313.91 57.76c-1.36 8.07-3.01 15.98-3.59 24.17-.53 7.57 4.89 10.38 11.78 7.41q.3-.13.32-.45l.18-3.14a.23.22-8.7 0 0-.31-.22c-6.99 2.65-8.17-1.5-7.35-6.79q1.61-10.47 3.28-20.99.07-.47.54-.47l7.93-.01a.53.52-86.3 0 0 .52-.46l.42-3.05a.38.37-86 0 0-.37-.43l-7.68-.01q-.48 0-.43-.48l1.09-10.18q.07-.67-.6-.67l-3.19-.02q-.36 0-.4.36l-1.14 10.53q-.05.45-.5.45l-4.62.01a.46.45-85.6 0 0-.45.39l-.45 3.09a.43.42 4.6 0 0 .42.49l4.18-.02q.5-.01.42.49M365.73 49.17l-.04 4.17q-.01.66.65.66h.39q.46 0 .48-.45.1-1.86.01-4.15-.02-.53.22-.74.31-.28.86-.21.6.07.7-.52l.04-.26q.11-.65-.54-.63l-4.29.09a.46.44-87.8 0 0-.43.41l-.04.47q-.04.38.34.42l1.09.1q.57.06.56.64M373.49 50.32q-1.05-.92-1.18-2.35a.99.99 0 0 0-.83-.89l-.49-.07q-1.16-.17-1.15 1l.02 5.7q0 .36.35.32l.44-.05a.54.53-.7 0 0 .48-.48l.17-1.97q.11-1.3.45-.04.24.89.49 1.76.14.48.42.67.45.31.91.04.46-.28.49-.83l.1-1.65a.2.2 0 0 1 .39-.07q.41.91.46 1.93.04.75.79.77l.31.01a.35.34.8 0 0 .36-.34l.04-6.02q0-.75-.75-.68l-.95.1q-.49.04-.67.5-.48 1.15-.15 2.32.28 1.01-.5.32M164.69 84.24l-.07 4.69q-.01.56.56.56l3.52-.01q.45 0 .37-.44-.41-2.23.03-5.03 2.39-15.19 4.78-30.19a.43.43 0 0 0-.43-.5l-3.42.01q-.41 0-.46.4l-.68 5.02a.39.39 0 0 1-.73.14c-6.11-10.98-21.63-5.97-27.52 2.33-6.09 8.59-7.17 25.81 6.55 28.72q9.87 2.09 17.13-5.84.38-.41.37.14M292.72 84.28q-.41 2.37-.07 4.74.07.47.55.47l3.54-.01a.26.26 0 0 0 .26-.3q-.43-2.58.06-5.68 2.4-14.96 4.71-29.58.1-.62-.53-.61l-3 .04q-.67 0-.77.66l-.7 4.75q-.14.94-.63.13-3.34-5.42-9.38-6.09c-11.62-1.3-20.94 7.72-22.23 19.2-.88 7.77 1.59 16.28 10.23 18q10.39 2.06 17.52-5.93.6-.67.44.21M333.68 72.53q7.32.73 14.52-.37c18.89-2.87 13.48-23.83-4.17-18.76-11.47 3.29-17.35 14.62-14.97 26.06 2.93 14.13 19.03 12.73 27.98 6a1.06 1.05-31.9 0 0 .31-1.31l-.86-1.69q-.36-.72-1-.22c-8.68 6.88-24.88 6.34-22.39-9.27q.08-.49.58-.44M224.03 61q.71-4.62.44-7.35-.04-.4-.45-.4l-3.47-.01q-.31 0-.27.31.33 2.71-.07 5.2-2.12 13.01-4.1 26.04c-.19 1.25-.12 2.61-.1 3.76q.01.94.94.94h2.79q.83 0 .67-.82-.4-2.03-.18-3.43 1.93-12.12 3.8-24.24M253.13 56.88q-1.56 11.38-4.33 27.87-.2 1.17 0 4.27.03.46.49.46l3.46.02q.49 0 .42-.49-.36-2.6-.13-4.02l4.08-26.05c.26-1.6.18-3.28.22-4.81q.02-.88-.87-.88h-2.75q-.94 0-.68.9.31 1.1.09 2.73M116.26 69.82a40.17 39.73.1 0 0-40.1-39.8 40.17 39.73.1 0 0-40.24 39.66 40.17 39.73.1 0 0 40.1 39.8 40.17 39.73.1 0 0 40.24-39.66"/><path stroke="#334155" vector-effect="non-scaling-stroke" d="M71.76 44.39c-7.33.38-14.39 5.33-16.12 12.88-1.15 5.06-3.29 12.27-2.42 16.7 1.86 9.39 13.9 8.01 23.04 7.71q.21-.01.26-.21l1.61-7.76a.19.19 0 0 0-.18-.23l-10.92-.03a4.13 4.12 5.6 0 1-4.04-4.9q.9-4.71 2.04-9.89c1.03-4.73 2.74-6.11 7.47-6.14q5.17-.04 9.85 0 .28 0 .34-.27l1.57-7.54a.27.27 0 0 0-.26-.32q-9.14-.16-12.24 0"/><path stroke="#334155" vector-effect="non-scaling-stroke" d="M85.5 67.14a.37.37 0 0 1 .36.44q-1.41 7.16-2.84 14.21c-.86 4.27-2.57 6.4-7.03 6.25q-2.39-.09-10.28-.01-.3 0-.35.29L63.76 96a.24.24 0 0 0 .23.28c9.99.07 20.53 1.42 26.34-8.21q1.8-2.99 3.53-11.34 1.79-8.66 3.57-17.38.11-.53-.44-.53l-24.97-.01q-.43 0-.51.42l-1.57 7.54a.32.31-83.9 0 0 .3.38l15.26-.01M146.802 85.392a15.74 12.54 117.5 0 0 18.391-8.172 15.74 12.54 117.5 0 0-3.855-19.752 15.74 12.54 117.5 0 0-18.391 8.172 15.74 12.54 117.5 0 0 3.855 19.752M274.761 85.385a15.73 12.55 117.4 0 0 18.381-8.19 15.73 12.55 117.4 0 0-3.903-19.74 15.73 12.55 117.4 0 0-18.381 8.19 15.73 12.55 117.4 0 0 3.903 19.74M352.78 57.49c-8.71-3.81-16.57 2.59-18.85 10.79a.46.45 11.6 0 0 .38.57c4.89.62 19.42.95 21.31-5.59q1.16-4.02-2.84-5.77"/><path fill="#fefefe" d="M0 0h400v139H0V0zm121.69 69.59a45.59 45.12-.2 0 0-45.748-44.96A45.59 45.12-.2 0 0 30.51 69.91a45.59 45.12-.2 0 0 45.747 44.96 45.59 45.12-.2 0 0 45.433-45.28zm81.2-11.83q-3.17 20.99-6.7 41.91c-.25 1.48-.85 2.89-1.42 4.21a.29.29 0 0 0 .27.41h3.44a.68.66-77.6 0 0 .61-.4q1.21-2.71 1.59-5.15 3.23-20.47 6.49-40.96.08-.5.59-.5l8.01-.01q.34 0 .39-.34l.43-3.19q.06-.41-.35-.41l-7.72-.01q-.58 0-.52-.58c.68-6.89 1.95-16.66 11.87-13.27q.19.07.24-.13l.84-3.49q.09-.35-.27-.43c-13.31-2.73-15.85 7.47-16.89 17.41q-.06.5-.56.5h-12.96q-.5 0-.45-.5c.58-5.89 2.23-17.65 11.73-13.28a.26.25 18.8 0 0 .36-.17l.87-3.43a.31.3-75.3 0 0-.21-.37c-12.61-3.7-16.16 7.52-16.9 17.14q-.05.6-.65.6l-4.27.01a.61.61 0 0 0-.6.52l-.44 3.13q-.04.3.27.3l4.49-.01a.33.33 0 0 1 .32.39q-3.31 20.68-6.6 41.34-.33 2.03-1.58 5-.12.29.19.29l3.64-.01q.31 0 .44-.29 1.31-2.91 1.83-6.24 3.13-20 6.3-40.03.08-.45.53-.45h12.93q.5 0 .42.49zm36.88-18.5c-2.33 15.19-4.83 30.36-7.17 45.56-.19 1.2-.02 2.52-.1 3.66a.94.94 0 0 0 .94 1.01h2.78q.9 0 .69-.88-.43-1.8-.18-3.37 3.54-22.24 7.07-44.48.24-1.54.06-4.17-.06-.83-.9-.84h-2.73q-.89 0-.66.86.39 1.42.2 2.65zm-17.042 4.12a3.73 3.2 130.9 0 0 4.86-.725 3.73 3.2 130.9 0 0 .024-4.914 3.73 3.2 130.9 0 0-4.86.724 3.73 3.2 130.9 0 0-.024 4.914zm32.701-.034a3.73 3.2 131.9 0 0 4.873-.639 3.73 3.2 131.9 0 0 .109-4.913 3.73 3.2 131.9 0 0-4.873.639 3.73 3.2 131.9 0 0-.109 4.913zM313.91 57.76c-1.36 8.07-3.01 15.98-3.59 24.17-.53 7.57 4.89 10.38 11.78 7.41q.3-.13.32-.45l.18-3.14a.23.22-8.7 0 0-.31-.22c-6.99 2.65-8.17-1.5-7.35-6.79q1.61-10.47 3.28-20.99.07-.47.54-.47l7.93-.01a.53.52-86.3 0 0 .52-.46l.42-3.05a.38.37-86 0 0-.37-.43l-7.68-.01q-.48 0-.43-.48l1.09-10.18q.07-.67-.6-.67l-3.19-.02q-.36 0-.4.36l-1.14 10.53q-.05.45-.5.45l-4.62.01a.46.45-85.6 0 0-.45.39l-.45 3.09a.43.42 4.6 0 0 .42.49l4.18-.02q.5-.01.42.49zm51.82-8.59-.04 4.17q-.01.66.65.66h.39q.46 0 .48-.45.1-1.86.01-4.15-.02-.53.22-.74.31-.28.86-.21.6.07.7-.52l.04-.26q.11-.65-.54-.63l-4.29.09a.46.44-87.8 0 0-.43.41l-.04.47q-.04.38.34.42l1.09.1q.57.06.56.64zm7.76 1.15q-1.05-.92-1.18-2.35a.99.99 0 0 0-.83-.89l-.49-.07q-1.16-.17-1.15 1l.02 5.7q0 .36.35.32l.44-.05a.54.53-.7 0 0 .48-.48l.17-1.97q.11-1.3.45-.04.24.89.49 1.76.14.48.42.67.45.31.91.04.46-.28.49-.83l.1-1.65a.2.2 0 0 1 .39-.07q.41.91.46 1.93.04.75.79.77l.31.01a.35.34.8 0 0 .36-.34l.04-6.02q0-.75-.75-.68l-.95.1q-.49.04-.67.5-.48 1.15-.15 2.32.28 1.01-.5.32zm-208.8 33.92-.07 4.69q-.01.56.56.56l3.52-.01q.45 0 .37-.44-.41-2.23.03-5.03 2.39-15.19 4.78-30.19a.43.43 0 0 0-.43-.5l-3.42.01q-.41 0-.46.4l-.68 5.02a.39.39 0 0 1-.73.14c-6.11-10.98-21.63-5.97-27.52 2.33-6.09 8.59-7.17 25.81 6.55 28.72q9.87 2.09 17.13-5.84.38-.41.37.14zm128.03.04q-.41 2.37-.07 4.74.07.47.55.47l3.54-.01a.26.26 0 0 0 .26-.3q-.43-2.58.06-5.68 2.4-14.96 4.71-29.58.1-.62-.53-.61l-3 .04q-.67 0-.77.66l-.7 4.75q-.14.94-.63.13-3.34-5.42-9.38-6.09c-11.62-1.3-20.94 7.72-22.23 19.2-.88 7.77 1.59 16.28 10.23 18q10.39 2.06 17.52-5.93.6-.67.44.21zm40.96-11.75q7.32.73 14.52-.37c18.89-2.87 13.48-23.83-4.17-18.76-11.47 3.29-17.35 14.62-14.97 26.06 2.93 14.13 19.03 12.73 27.98 6a1.06 1.05-31.9 0 0 .31-1.31l-.86-1.69q-.36-.72-1-.22c-8.68 6.88-24.88 6.34-22.39-9.27q.08-.49.58-.44zM224.03 61q.71-4.62.44-7.35-.04-.4-.45-.4l-3.47-.01q-.31 0-.27.31.33 2.71-.07 5.2-2.12 13.01-4.1 26.04c-.19 1.25-.12 2.61-.1 3.76q.01.94.94.94h2.79q.83 0 .67-.82-.4-2.03-.18-3.43 1.93-12.12 3.8-24.24zm29.1-4.12q-1.56 11.38-4.33 27.87-.2 1.17 0 4.27.03.46.49.46l3.46.02q.49 0 .42-.49-.36-2.6-.13-4.02l4.08-26.05c.26-1.6.18-3.28.22-4.81q.02-.88-.87-.88h-2.75q-.94 0-.68.9.31 1.1.09 2.73z"/><path fill="#404040" d="M121.69 69.59a45.59 45.12-.2 0 1-45.433 45.28A45.59 45.12-.2 0 1 30.51 69.91a45.59 45.12-.2 0 1 45.432-45.28 45.59 45.12-.2 0 1 45.748 44.96zm-5.43.23a40.17 39.73.1 0 0-40.1-39.8 40.17 39.73.1 0 0-40.24 39.66 40.17 39.73.1 0 0 40.1 39.8 40.17 39.73.1 0 0 40.24-39.66z"/><path fill="#fefefe" d="M116.26 69.82a40.17 39.73.1 0 1-40.24 39.66 40.17 39.73.1 0 1-40.1-39.8 40.17 39.73.1 0 1 40.24-39.66 40.17 39.73.1 0 1 40.1 39.8zm-44.5-25.43c-7.33.38-14.39 5.33-16.12 12.88-1.15 5.06-3.29 12.27-2.42 16.7 1.86 9.39 13.9 8.01 23.04 7.71q.21-.01.26-.21l1.61-7.76a.19.19 0 0 0-.18-.23l-10.92-.03a4.13 4.12 5.6 0 1-4.04-4.9q.9-4.71 2.04-9.89c1.03-4.73 2.74-6.11 7.47-6.14q5.17-.04 9.85 0 .28 0 .34-.27l1.57-7.54a.27.27 0 0 0-.26-.32q-9.14-.16-12.24 0zM85.5 67.14a.37.37 0 0 1 .36.44q-1.41 7.16-2.84 14.21c-.86 4.27-2.57 6.4-7.03 6.25q-2.39-.09-10.28-.01-.3 0-.35.29L63.76 96a.24.24 0 0 0 .23.28c9.99.07 20.53 1.42 26.34-8.21q1.8-2.99 3.53-11.34 1.79-8.66 3.57-17.38.11-.53-.44-.53l-24.97-.01q-.43 0-.51.42l-1.57 7.54a.32.31-83.9 0 0 .3.38l15.26-.01z"/><path fill="#404040" d="M202.47 57.27h-12.93q-.45 0-.53.45-3.17 20.03-6.3 40.03-.52 3.33-1.83 6.24-.13.29-.44.29l-3.64.01q-.31 0-.19-.29 1.25-2.97 1.58-5 3.29-20.66 6.6-41.34a.33.33 0 0 0-.32-.39l-4.49.01q-.31 0-.27-.3l.44-3.13a.61.61 0 0 1 .6-.52l4.27-.01q.6 0 .65-.6c.74-9.62 4.29-20.84 16.9-17.14a.31.3-75.3 0 1 .21.37l-.87 3.43a.26.25 18.8 0 1-.36.17c-9.5-4.37-11.15 7.39-11.73 13.28q-.05.5.45.5h12.96q.5 0 .56-.5c1.04-9.94 3.58-20.14 16.89-17.41q.36.08.27.43l-.84 3.49q-.05.2-.24.13c-9.92-3.39-11.19 6.38-11.87 13.27q-.06.58.52.58l7.72.01q.41 0 .35.41l-.43 3.19q-.05.34-.39.34l-8.01.01q-.51 0-.59.5-3.26 20.49-6.49 40.96-.38 2.44-1.59 5.15a.68.66-77.6 0 1-.61.4h-3.44a.29.29 0 0 1-.27-.41c.57-1.32 1.17-2.73 1.42-4.21q3.53-20.92 6.7-41.91.08-.49-.42-.49zM232.6 84.82c2.34-15.2 4.84-30.37 7.17-45.56q.19-1.23-.2-2.65-.23-.86.66-.86h2.73q.84.01.9.84.18 2.63-.06 4.17-3.53 22.24-7.07 44.48-.25 1.57.18 3.37.21.88-.69.88h-2.78a.94.94 0 0 1-.94-1.01c.08-1.14-.09-2.46.1-3.66z"/><ellipse fill="#404040" transform="rotate(130.9 103.321 71.707)" rx="3.73" ry="3.2"/><ellipse fill="#404040" transform="rotate(131.9 119.907 77.837)" rx="3.73" ry="3.2"/><path fill="#404040" d="m313.49 57.27-4.18.02a.43.42 4.6 0 1-.42-.49l.45-3.09a.46.45-85.6 0 1 .45-.39l4.62-.01q.45 0 .5-.45l1.14-10.53q.04-.36.4-.36l3.19.02q.67 0 .6.67l-1.09 10.18q-.05.48.43.48l7.68.01a.38.37-86 0 1 .37.43l-.42 3.05a.53.52-86.3 0 1-.52.46l-7.93.01q-.47 0-.54.47-1.67 10.52-3.28 20.99c-.82 5.29.36 9.44 7.35 6.79a.23.22-8.7 0 1 .31.22l-.18 3.14q-.02.32-.32.45c-6.89 2.97-12.31.16-11.78-7.41.58-8.19 2.23-16.1 3.59-24.17q.08-.5-.42-.49zM55.64 57.27c1.73-7.55 8.79-12.5 16.12-12.88q3.1-.16 12.24 0a.27.27 0 0 1 .26.32l-1.57 7.54q-.06.27-.34.27-4.68-.04-9.85 0c-4.73.03-6.44 1.41-7.47 6.14q-1.14 5.18-2.04 9.89a4.13 4.12 5.6 0 0 4.04 4.9l10.92.03a.19.19 0 0 1 .18.23l-1.61 7.76q-.05.2-.26.21c-9.14.3-21.18 1.68-23.04-7.71-.87-4.43 1.27-11.64 2.42-16.7zM365.17 48.53l-1.09-.1q-.38-.04-.34-.42l.04-.47a.46.44-87.8 0 1 .43-.41l4.29-.09q.65-.02.54.63l-.04.26q-.1.59-.7.52-.55-.07-.86.21-.24.21-.22.74.09 2.29-.01 4.15-.02.45-.48.45h-.39q-.66 0-.65-.66l.04-4.17q.01-.58-.56-.64zM373.99 50q-.33-1.17.15-2.32.18-.46.67-.5l.95-.1q.75-.07.75.68l-.04 6.02a.35.34.8 0 1-.36.34l-.31-.01q-.75-.02-.79-.77-.05-1.02-.46-1.93a.2.2 0 0 0-.39.07l-.1 1.65q-.03.55-.49.83-.46.27-.91-.04-.28-.19-.42-.67-.25-.87-.49-1.76-.34-1.26-.45.04l-.17 1.97a.54.53-.7 0 1-.48.48l-.44.05q-.35.04-.35-.32l-.02-5.7q-.01-1.17 1.15-1l.49.07a.99.99 0 0 1 .83.89q.13 1.43 1.18 2.35.78.69.5-.32zM164.32 84.1q-7.26 7.93-17.13 5.84c-13.72-2.91-12.64-20.13-6.55-28.72 5.89-8.3 21.41-13.31 27.52-2.33a.39.39 0 0 0 .73-.14l.68-5.02q.05-.4.46-.4l3.42-.01a.43.43 0 0 1 .43.5q-2.39 15-4.78 30.19-.44 2.8-.03 5.03.08.44-.37.44l-3.52.01q-.57 0-.56-.56l.07-4.69q.01-.55-.37-.14zm-17.518 1.292a15.74 12.54 117.5 0 0 18.391-8.172 15.74 12.54 117.5 0 0-3.855-19.752 15.74 12.54 117.5 0 0-18.391 8.172 15.74 12.54 117.5 0 0 3.855 19.752zM292.28 84.07q-7.13 7.99-17.52 5.93c-8.64-1.72-11.11-10.23-10.23-18 1.29-11.48 10.61-20.5 22.23-19.2q6.04.67 9.38 6.09.49.81.63-.13l.7-4.75q.1-.66.77-.66l3-.04q.63-.01.53.61-2.31 14.62-4.71 29.58-.49 3.1-.06 5.68a.26.26 0 0 1-.26.3l-3.54.01q-.48 0-.55-.47-.34-2.37.07-4.74.16-.88-.44-.21zm-17.519 1.315a15.73 12.55 117.4 0 0 18.381-8.19 15.73 12.55 117.4 0 0-3.903-19.74 15.73 12.55 117.4 0 0-18.381 8.19 15.73 12.55 117.4 0 0 3.903 19.74zM333.1 72.97c-2.49 15.61 13.71 16.15 22.39 9.27q.64-.5 1 .22l.86 1.69a1.06 1.05-31.9 0 1-.31 1.31c-8.95 6.73-25.05 8.13-27.98-6-2.38-11.44 3.5-22.77 14.97-26.06 17.65-5.07 23.06 15.89 4.17 18.76q-7.2 1.1-14.52.37-.5-.05-.58.44zm19.68-15.48c-8.71-3.81-16.57 2.59-18.85 10.79a.46.45 11.6 0 0 .38.57c4.89.62 19.42.95 21.31-5.59q1.16-4.02-2.84-5.77zM224.03 61q-1.87 12.12-3.8 24.24-.22 1.4.18 3.43.16.82-.67.82h-2.79q-.93 0-.94-.94c-.02-1.15-.09-2.51.1-3.76q1.98-13.03 4.1-26.04.4-2.49.07-5.2-.04-.31.27-.31l3.47.01q.41 0 .45.4.27 2.73-.44 7.35zM253.13 56.88q.22-1.63-.09-2.73-.26-.9.68-.9h2.75q.89 0 .87.88c-.04 1.53.04 3.21-.22 4.81l-4.08 26.05q-.23 1.42.13 4.02.07.49-.42.49l-3.46-.02q-.46 0-.49-.46-.2-3.1 0-4.27 2.77-16.49 4.33-27.87z"/><path fill="#fefefe" d="M352.78 57.49q4 1.75 2.84 5.77c-1.89 6.54-16.42 6.21-21.31 5.59a.46.45 11.6 0 1-.38-.57c2.28-8.2 10.14-14.6 18.85-10.79z"/><ellipse fill="#fefefe" transform="rotate(117.5 55.363 82.461)" rx="15.74" ry="12.54"/><ellipse fill="#fefefe" transform="rotate(117.4 119.288 121.44)" rx="15.73" ry="12.55"/><path fill="#404040" d="m85.5 67.14-15.26.01a.32.31-83.9 0 1-.3-.38l1.57-7.54q.08-.42.51-.42l24.97.01q.55 0 .44.53-1.78 8.72-3.57 17.38-1.73 8.35-3.53 11.34c-5.81 9.63-16.35 8.28-26.34 8.21a.24.24 0 0 1-.23-.28l1.6-7.68q.05-.29.35-.29 7.89-.08 10.28.01c4.46.15 6.17-1.98 7.03-6.25q1.43-7.05 2.84-14.21a.37.37 0 0 0-.36-.44z"/></g></svg>