<svg xmlns="http://www.w3.org/2000/svg" id="a" viewBox="0 27 130 32">
  <defs>
    <style>.g{fill:#686868;}.h{fill:#979798;}</style>
  </defs>
  <g id="b" transform="scale(2)" >
    <g id="c" transform="translate(-20.000000, -65.000000)">
      <g id="d" transform="translate(20.000000, 65.000000)">
        <path id="e" class="g" d="M35.19,24.86c1.17,0,1.76-.39,1.76-1.17s-.59-1.24-1.82-1.24c-.46,0-.98,.07-1.56,.13v-2.67c.46,.07,.91,.07,1.37,.07,1.24,0,1.82-.39,1.82-1.24s-.59-1.24-1.69-1.24c-.78,0-1.69,.2-2.86,.59v-2.73c1.04-.39,2.28-.52,3.77-.52,3.19,0,5.07,1.43,5.07,3.64,0,1.37-.85,2.34-2.41,2.67,1.69,.33,2.54,1.3,2.54,2.8,0,2.28-1.89,3.64-5.46,3.64-1.24,0-2.41-.2-3.64-.46v-2.86c1.24,.39,2.28,.59,3.12,.59h0Zm13.4-5.46c2.54,0,4.23,1.56,4.23,3.97,0,2.54-1.95,4.29-4.94,4.29-3.58,0-5.85-2.28-5.85-6.05,0-4.36,2.41-6.76,6.83-6.76,.91,0,1.95,.13,2.99,.33v2.8c-.98-.33-1.89-.46-2.86-.46-1.95,0-2.86,.78-2.86,2.6,.72-.52,1.5-.72,2.47-.72h0Zm.39,3.84c0-1.04-.59-1.69-1.37-1.69s-1.37,.65-1.37,1.69,.52,1.63,1.37,1.63,1.37-.65,1.37-1.63Zm5.14-8.07h8.26v2.93h-4.42v1.82c.33,0,.59-.07,.65-.07,2.73,0,4.23,1.43,4.23,3.84s-1.82,3.97-5.33,3.97c-1.24,0-2.41-.2-3.64-.52v-2.8c.91,.26,1.76,.39,2.47,.39,1.43,0,2.15-.52,2.15-1.43,0-1.04-.78-1.5-2.41-1.5-.65,0-1.37,.13-2.02,.33l.07-6.96h0Z"></path>
        <path id="f" class="h" d="M1.17,14.2H5.4v5.14c.59-.85,1.37-1.24,2.47-1.24,2.47,0,3.84,1.76,3.84,4.88s-1.43,4.75-3.71,4.75c-1.43,0-2.34-.52-2.93-1.69v1.56H1.17V14.2Zm4.1,8.72c0,1.37,.26,2.02,1.04,2.02,.72,0,1.04-.65,1.04-2.02s-.33-2.02-1.04-2.02c-.78,0-1.04,.65-1.04,2.02h0Zm17.17,.85h-5.79c.13,.98,.85,1.5,2.28,1.5,.98,0,2.02-.2,2.99-.59v2.34c-.98,.39-2.28,.65-3.84,.65-3.58,0-5.53-1.76-5.53-4.81s1.89-4.81,5.07-4.81c3.51,0,4.88,1.69,4.88,5.2l-.07,.52h0Zm-3.64-1.76v-.26c0-1.04-.39-1.63-1.11-1.63s-1.11,.59-1.11,1.63v.26h2.21Zm11.97-3.84v2.67h-1.95v2.21c0,1.11,.2,1.63,1.04,1.63,.2,0,.52-.07,.91-.13v2.6c-.91,.26-1.82,.39-2.8,.39-1.17,0-2.08-.39-2.6-1.04-.72-.91-.72-1.95-.72-3.45v-2.21h-1.5v-2.67h1.43v-2.02l4.23-1.37v3.38h1.95Z"></path>
      </g>
    </g>
  </g>
</svg>