<svg xmlns="http://www.w3.org/2000/svg" fill="none" viewBox="0 0 1336 330" height="330" width="1336">
<path fill="#254181" d="M404.467 212.604C391.212 211.513 377.928 210.668 364.719 209.167C361.244 208.773 359.822 209.311 358.311 212.406C346.883 235.828 333.528 258.084 316.601 277.989C303.073 293.898 288.689 309 270.005 319.049C253.827 327.75 236.81 332.036 218.605 326.338C206.948 322.689 198.505 314.819 192.458 304.386C180.348 283.494 175.643 260.381 172.686 236.813C171.635 228.441 171.221 219.989 170.411 210.315C165.751 222.073 161.856 232.818 157.279 243.263C146.994 266.735 134.609 288.938 115.852 306.894C103.553 318.667 89.6003 327.234 72.0372 328.588C52.257 330.112 37.5061 321.601 26.8346 305.653C14.7412 287.58 9.41699 266.941 5.63322 245.854C-0.73556 210.362 -1.07134 174.558 1.5076 138.776C3.39702 112.561 6.58775 86.4275 9.74699 60.324C10.7532 52.0101 12.429 43.4232 19.7133 37.5954C27.4274 31.4237 43.3782 30.2145 51.9626 35.1337C59.9134 39.6898 60.8317 47.4577 60.0592 55.1759C57.6891 78.8569 54.258 102.437 52.1567 126.138C48.9321 162.511 46.929 198.965 52.648 235.309C54.7438 248.627 57.0653 261.975 65.2638 273.323C72.0159 282.669 80.0943 284.196 89.238 277.317C101.391 268.173 109.182 255.426 116.158 242.344C135.563 205.956 148.125 167.007 157.467 127.02C163.027 103.221 167.661 79.1989 172.395 55.2148C176.896 32.4086 197.649 29.3565 212.332 33.9268C219.092 36.0311 223.043 42.4206 222.595 51.082C222.149 59.6966 220.799 68.283 219.517 76.8325C213.57 116.484 211.275 156.371 212.803 196.397C213.5 214.642 215.581 232.867 217.862 250.998C218.607 256.924 221.487 262.763 224.23 268.22C230.56 280.811 246.05 285.133 259.029 278.357C268.349 273.491 275.939 266.518 282.478 258.431C298.379 238.766 310.757 216.959 321.357 193.792C317.166 190.468 312.919 187.316 308.91 183.886C290.813 168.405 282.292 148.031 279.767 124.942C277.627 105.368 279.171 86.0973 286.041 67.373C297.003 37.4918 326.13 21.3074 357.057 28.49C369.787 31.4465 378.074 40.1136 384.14 51.1765C390.507 62.789 391.852 75.4384 391.731 88.4165C391.482 115.347 385.701 141.232 377.235 166.63C376.604 168.523 376.021 170.433 375.454 172.347C375.371 172.624 375.508 172.965 375.695 174.623C388.199 175.296 400.927 175.981 414.065 177.069C413.499 180.633 412.455 183.775 411.561 186.959C409.162 195.497 406.828 204.054 404.467 212.604ZM347.427 77.4725C345.227 72.1285 342.848 66.9276 335.986 66.4898C328.945 66.0406 324.525 70.065 321.05 75.5312C320.166 76.9229 319.315 78.3885 318.765 79.9328C311.85 99.3474 312.385 118.781 319.475 137.942C322.559 146.275 328.229 152.986 336.306 158.755C339.431 147.632 342.846 137.235 345.223 126.606C348.785 110.681 351.356 94.581 347.427 77.4725Z"></path>
<path fill="#346FE7" d="M1133.79 263.606C1134.05 261.484 1134.53 259.361 1134.52 257.24C1134.31 216.645 1138.08 176.379 1145.65 136.545C1151.89 103.746 1161.15 71.8045 1176.76 42.0144C1183.47 29.2003 1191.36 17.2402 1203.32 8.74864C1214.76 0.621408 1227.51 -2.83341 1241.04 2.69058C1253.46 7.75773 1259.59 18.4651 1262.73 30.8629C1266.97 47.5849 1265 64.2413 1261.08 80.7425C1254.92 106.638 1242.47 129.628 1226.67 150.633C1211.96 170.177 1195.87 188.674 1180.55 207.756C1179.03 209.647 1177.84 212.377 1177.77 214.755C1177.47 224.973 1177.64 235.206 1177.64 245.69C1179.02 242.371 1180.33 239.034 1181.78 235.76C1191.24 214.366 1203.24 194.708 1221.32 179.393C1230.38 171.713 1240.69 166.447 1252.76 165.451C1270.01 164.026 1279.58 172.654 1277.73 189.9C1275.81 207.72 1272.07 225.343 1269.11 243.05C1267.42 253.22 1265.44 263.351 1264.09 273.567C1263.33 279.319 1262.87 285.75 1268.99 289.2C1275.33 292.781 1281.4 289.835 1285.92 285.572C1295.7 276.33 1304.94 266.495 1314.17 256.692C1317.94 252.697 1321.61 248.216 1327.59 250.101C1333.54 251.975 1334.49 257.698 1334.91 263.174C1335.67 273.079 1333.16 281.823 1326.34 289.397C1315.22 301.733 1303.05 312.858 1288.61 321.068C1274.44 329.126 1259.05 331.066 1243.23 326.843C1230.77 323.518 1222.41 310.717 1221.61 295.193C1220.81 279.532 1224.39 264.427 1227 249.184C1228.32 241.483 1229.65 233.766 1230.45 226.003C1230.69 223.711 1229.14 221.236 1228.42 218.845C1225.93 219.806 1222.42 220.036 1221.13 221.849C1214.4 231.304 1206.75 240.518 1202.21 251.022C1194.38 269.147 1188.48 288.119 1182 306.813C1176.84 321.695 1164.73 329.91 1149.05 328.719C1141.77 328.166 1137.66 324.843 1136.09 317.852C1135.33 314.459 1135.05 310.957 1134.56 306.603C1134.58 293.258 1134.62 280.814 1134.56 268.371C1134.55 266.781 1134.06 265.194 1133.79 263.606ZM1199.4 77.7547C1190.79 106.511 1185.84 135.995 1181.61 166.475C1182.8 165.227 1183.49 164.574 1184.09 163.847C1197.23 148.003 1208.16 130.765 1216.89 112.121C1224.49 95.8929 1230.65 79.211 1231.11 61.0657C1231.27 54.6565 1230.61 48.0883 1229.21 41.8431C1228.6 39.1382 1225.53 35.9568 1222.89 35.0944C1221.1 34.5087 1217.97 37.3891 1215.72 39.0897C1214.46 40.0402 1213.48 41.6283 1212.87 43.1316C1208.37 54.3825 1204 65.684 1199.4 77.7547Z"></path>
<path fill="#2C59B4" d="M862.888 75.2582C853.777 74.8366 845.138 74.4378 836.5 73.9939C833.552 73.8424 831.939 74.9252 831.359 78.0518C827.48 98.9812 823.365 119.867 819.519 140.803C815.973 160.099 812.446 179.405 809.318 198.772C806.161 218.314 803.278 237.906 800.7 257.532C798.556 273.851 796.954 290.242 795.25 306.615C793.586 322.599 783.338 328.538 766.789 328.806C753.909 329.014 741.976 321.658 744.577 303.38C748.842 273.418 752.955 243.433 757.426 213.502C760.496 192.941 763.811 172.409 767.482 151.947C771.123 131.649 775.335 111.453 779.323 91.2175C780.192 86.8114 781.364 82.4526 781.95 78.0131C782.078 77.0411 780.248 74.8157 779.402 74.8566C759.813 75.8058 740.165 76.466 721.233 82.4477C719.336 83.0468 717.493 83.8127 715.618 84.479C693.043 92.4975 689.022 111.997 697.299 131.019C699.663 136.452 703.812 141.328 699.788 147.706C695.676 154.223 689.448 157.619 682.3 159.091C672.2 161.171 667.509 158.117 661.046 148.011C646.418 125.136 648.98 88.0137 670.564 67.9053C680.837 58.3341 693.06 52.053 706.225 47.4925C725.042 40.9747 744.531 37.9041 764.259 35.7347C798.782 31.9382 833.417 31.8186 868.017 32.9672C889.245 33.6719 910.413 36.3912 931.581 38.4854C935.289 38.8522 939.071 40.1669 942.452 41.8021C951.651 46.2504 955.536 54.5082 953.435 64.0724C951.445 73.1327 944.843 78.8703 934.607 78.6801C920.153 78.4114 905.719 77.133 891.271 76.3933C881.973 75.9172 872.664 75.6333 862.888 75.2582Z"></path>
<path fill="#2A52A3" d="M483.709 265.572C484.067 262.814 484.61 260.066 484.754 257.297C485.981 233.645 490.14 210.546 496.315 187.663C501.938 166.829 517.686 163.511 534.527 165.786C538.779 166.36 540.939 169.936 539.987 174.916C538.211 184.202 535.863 193.377 533.935 202.636C531.035 216.562 528.29 230.521 525.479 244.465C526.051 244.627 526.623 244.789 527.195 244.951C528.365 242.349 529.576 239.764 530.698 237.142C540.097 215.188 552.288 195.122 570.703 179.482C580.919 170.805 592.47 164.769 606.374 165.363C621.016 165.989 628.219 173.309 627.403 187.909C626.784 198.977 624.955 210.018 623.042 220.963C620.328 236.492 616.89 251.894 614.099 267.411C613.313 271.782 613.296 276.397 613.648 280.843C614.276 288.793 619.827 292.668 627.201 289.77C632.011 287.881 636.765 284.939 640.478 281.362C648.133 273.988 655.068 265.869 662.313 258.068C664.125 256.118 665.821 254.012 667.86 252.33C673.869 247.372 680.925 249.319 683.137 256.812C686.458 268.059 684.586 278.664 677.181 287.81C666.991 300.399 655.268 311.41 641.29 319.768C627.932 327.755 613.279 330.346 598.063 328.171C582.894 326.003 573.928 315.413 571.52 298.792C569.447 284.483 572.831 270.697 575.149 256.792C576.758 247.132 578.292 237.46 579.814 227.787C580.02 226.481 580.293 225.039 579.947 223.828C579.436 222.039 578.803 219.727 577.454 218.913C576.398 218.276 573.627 219.038 572.57 220.114C568.985 223.763 565.44 227.566 562.565 231.777C547.568 253.74 539.279 278.541 532.419 303.938C531.216 308.391 529.441 312.697 527.806 317.024C524.343 326.188 517.2 329.074 507.996 328.773C498.578 328.465 493.172 323.004 489.688 315.029C488.567 312.463 488.034 309.641 486.914 306.285C485.914 292.856 485.243 280.077 484.52 267.301C484.486 266.711 483.99 266.147 483.709 265.572Z"></path>
<path fill="#2F61C6" d="M1010.6 301.553C980.259 326.133 946.35 335.944 908.287 324.148C881.861 315.959 867.656 296.366 863.686 269.465C860.088 245.081 864.646 221.966 877.902 201.134C891.318 180.051 910.214 167.239 935.86 165.456C953.697 164.215 969.328 168.469 979.048 184.34C988.36 199.543 987.948 216.096 981.156 232.276C973.984 249.362 960.353 260.015 943.75 266.943C933.245 271.326 922.334 274.737 911.195 278.731C914.56 286.467 921.334 290.249 929.182 292.389C939.56 295.219 950.046 294.629 960.153 291.341C974.464 286.684 987.395 279.345 999.142 269.685C1000.94 281.292 1004.74 291.786 1010.6 301.553ZM906.784 250.396C914.888 247.101 923.278 244.359 931.016 240.357C938.989 236.234 945.174 229.815 947.744 220.832C949.714 213.943 949.763 207.026 943.65 202.034C938.026 197.442 931.604 198.659 925.847 201.816C922.46 203.674 919.352 206.489 916.892 209.505C907.727 220.739 905.428 234.272 904.819 248.244C904.787 248.975 905.569 249.741 906.784 250.396Z"></path>
<path fill="#3166D5" d="M1010.9 301.709C1004.74 291.786 1000.94 281.292 999.45 269.519C997.856 249.71 999.818 230.782 1008.29 213.138C1021.88 184.798 1043.17 166.687 1075.88 165.171C1102.26 163.948 1120.84 186.303 1115.67 213.597C1114.39 220.366 1111.03 227.017 1107.43 232.998C1103.21 240.013 1092.74 242.021 1085.2 238.616C1080.27 236.388 1078.21 232.509 1078.76 227.425C1079.23 223.153 1080.43 218.965 1081.2 214.72C1082.1 209.761 1083.28 204.211 1078.47 200.934C1073.38 197.464 1067.84 199.393 1063.12 202.646C1054.97 208.265 1050.33 216.514 1047.4 225.67C1042.29 241.698 1040.94 257.962 1046.92 274.051C1051.34 285.921 1060.9 291.301 1073.04 292.385C1091.9 294.067 1107.21 285.827 1121.29 274.548C1125.44 271.228 1129.25 267.493 1133.5 263.777C1134.06 265.194 1134.55 266.781 1134.56 268.371C1134.62 280.814 1134.58 293.258 1134.56 306.179C1127.06 310.877 1119.8 315.6 1112.03 319.225C1089.55 329.709 1066.27 332.118 1042.32 324.656C1029.35 320.616 1018.98 313.005 1010.9 301.709Z"></path>
<path fill="#274A93" d="M483.438 265.77C483.99 266.147 484.486 266.711 484.52 267.301C485.243 280.077 485.914 292.856 486.598 306.084C476.357 316.561 464.894 324.802 450.619 327.648C427.394 332.278 409.305 323.838 401.927 299.728C396.896 283.285 397.029 266.574 399.088 249.809C400.583 237.633 402.764 225.542 404.553 213.008C406.828 204.054 409.162 195.497 411.561 186.959C412.455 183.775 413.499 180.633 414.531 177.112C421.855 165.841 435.983 161.65 448.21 166.863C453.308 169.036 455.465 173.193 454.693 178.496C453.02 189.976 451.097 201.42 449.163 212.86C446.182 230.497 442.843 248.079 440.24 265.771C439.514 270.709 440.176 276.115 441.376 281.018C443.729 290.633 452.102 293.805 460.045 287.758C466.991 282.471 473.005 275.955 479.399 269.948C480.728 268.699 481.914 267.298 483.438 265.77Z"></path>
<path fill="#284A93" d="M475.31 121.947C469.624 137.245 457.249 142.242 442.212 141.969C434.078 141.822 426.183 140.47 420.52 133.864C410.973 122.727 412.716 104.96 424.623 95.6208C435.845 86.8189 448.736 85.4508 461.857 90.3314C474.054 94.8677 478.963 105.509 476.058 118.643C475.843 119.613 475.632 120.585 475.31 121.947Z"></path>
</svg>
